{"title":"Antiviral.2012.BRRip.XviD.AC3.HORiZON-ArtSubs","uid":8232305,"size":1465651841,"categoryP":"video","categoryS":"movies","magnet":"?xt=urn:btih:d39de512ac8c8f454bfe84d6cedccb26632ef82d&amp;dn=Antiviral.2012.BRRip.XviD.AC3.HORiZON-ArtSubs&amp;tr=udp%3A%2F%2Ftracker.openbittorrent.com%3A80&amp;tr=udp%3A%2F%2Fopen.demonii.com%3A1337&amp;tr=udp%3A%2F%2Ftracker.coppersurfer.tk%3A6969&amp;tr=udp%3A%2F%2Fexodus.desync.com%3A6969","seeders":1,"leechers":1,"uploader":"lletaif","files":2,"time":1362754173,"description":"Title:\nAntiviral\n\nCountry:\nCanada/2012\n\nLanguage:\nEnglish\n\nSubtitle:\nEnglish (srt)\n\nDirector:\nBrandon Cronenberg\n\nWriter:\nBrandon Cronenberg (screenplay)\n\nStars:\nCaleb Landry Jones, Lisa Berry, Sarah Gadon\n\nSynopsis:\nSyd March is an employee at a clinic that sells injections of live viruses harvested from sick celebrities to obsessed fans. Biological communion - for a price. Syd also supplies illegal samples of these viruses to piracy groups, smuggling them from the clinic in his own body. When he becomes infected with the disease that kills super sensation Hannah Geist, Syd becomes a target for collectors and rabid fans. He must unravel the mystery surrounding her death before he suffers the same fate. \n\nTrivia:\nOfficial Selection Cannes Film Festival 2012\n\nImdb: &lt;a href=&quot;\nhttp://www.imdb.com/title/tt2099556&quot; rel=&quot;nofollow&quot; target=&quot;_NEW&quot;&gt;\nhttp://www.imdb.com/title/tt2099556&lt;/a&gt;\n\nTrailer: &lt;a href=&quot;\nhttp://www.bandes-annonces.fr/film-2013/bande-annonce-antiviral.html&quot; rel=&quot;nofollow&quot; target=&quot;_NEW&quot;&gt;\nhttp://www.bandes-annonces.fr/film-2013/bande-annonce-antiviral.html&lt;/a&gt;\n\nMedia Info:\n\nGeneral\nComplete name                            : Antiviral.2012.BRRip.XviD.AC3.HORiZON-ArtSubs\nFormat                                   : AVI\nFormat/Info                              : Audio Video Interleave\nFile size                                : 1.36 GiB\nDuration                                 : 1h 43mn\nOverall bit rate                         : 1 890 Kbps\nWriting application                      : FairUse Wizard - http://fairusewizard.com\nWriting library                          : The best and REALLY easy backup tool\n\nVideo\nID                                       : 0\nFormat                                   : MPEG-4 Visual\nFormat profile                           : Advanced Simple@L5\nFormat settings, BVOP                    : 1\nFormat settings, QPel                    : No\nFormat settings, GMC                     : No warppoints\nFormat settings, Matrix                  : Default (MPEG)\nMuxing mode                              : Packed bitstream\nCodec ID                                 : XVID\nCodec ID/Hint                            : XviD\nDuration                                 : 1h 43mn\nBit rate                                 : 1 432 Kbps\nWidth                                    : 688 pixels\nHeight                                   : 368 pixels\nDisplay aspect ratio                     : 1.85:1\nFrame rate                               : 25.000 fps\nColor space                              : YUV\nChroma subsampling                       : 4:2:0\nBit depth                                : 8 bits\nScan type                                : Progressive\nCompression mode                         : Lossy\nBits/(Pixel*Frame)                       : 0.226\nStream size                              : 1.03 GiB (76%)\nWriting library                          : XviD 1.2.0.dev47 (UTC 2006-11-01)\n\nAudio\nID                                       : 1\nFormat                                   : AC-3\nFormat/Info                              : Audio Coding 3\nMode extension                           : CM (complete main)\nFormat settings, Endianness              : Big\nCodec ID                                 : 2000\nDuration                                 : 1h 43mn\nBit rate mode                            : Constant\nBit rate                                 : 448 Kbps\nChannel(s)                               : 6 channels\nChannel positions                        : Front: L C R, Side: L R, LFE\nSampling rate                            : 48.0 KHz\nBit depth                                : 16 bits\nCompression mode                         : Lossy\nStream size                              : 331 MiB (24%)\nAlignment                                : Split accross interleaves\nInterleave, duration                     : 40 ms (1.00 video frame)\nInterleave, preload duration             : 500 ms\n\n","torrent":{"xt":"urn:btih:d39de512ac8c8f454bfe84d6cedccb26632ef82d","amp;dn":"Antiviral.2012.BRRip.XviD.AC3.HORiZON-ArtSubs","amp;tr":["udp%3A%2F%2Ftracker.openbittorrent.com%3A80","udp%3A%2F%2Fopen.demonii.com%3A1337","udp%3A%2F%2Ftracker.coppersurfer.tk%3A6969","udp%3A%2F%2Fexodus.desync.com%3A6969"],"infoHash":"d39de512ac8c8f454bfe84d6cedccb26632ef82d","infoHashBuffer":{"type":"Buffer","data":[211,157,229,18,172,140,143,69,75,254,132,214,206,220,203,38,99,46,248,45]},"announce":[],"urlList":[]}}